<mxfile host="65bd71144e">
    <diagram id="BnLmanohxLv76QinxHZh" name="Page-4">
        <mxGraphModel dx="694" dy="692" grid="1" gridSize="10" guides="1" tooltips="1" connect="1" arrows="1" fold="1" page="1" pageScale="1" pageWidth="850" pageHeight="1100" math="0" shadow="0">
            <root>
                <mxCell id="0"/>
                <mxCell id="1" parent="0"/>
                <mxCell id="p9GJjc7nHzshsCbPRGxp-1" value="40 GB" style="rounded=0;whiteSpace=wrap;html=1;verticalAlign=top;" vertex="1" parent="1">
                    <mxGeometry x="80" y="120" width="160" height="360" as="geometry"/>
                </mxCell>
                <mxCell id="p9GJjc7nHzshsCbPRGxp-2" value="Quantized 7B" style="rounded=0;whiteSpace=wrap;html=1;fillColor=#0000FF;" vertex="1" parent="1">
                    <mxGeometry x="100" y="400" width="120" height="60" as="geometry"/>
                </mxCell>
                <mxCell id="p9GJjc7nHzshsCbPRGxp-4" value="LoRA" style="rounded=0;whiteSpace=wrap;html=1;fillColor=#999900;" vertex="1" parent="1">
                    <mxGeometry x="100" y="360" width="120" height="30" as="geometry"/>
                </mxCell>
                <mxCell id="p9GJjc7nHzshsCbPRGxp-5" value="AdamW" style="rounded=0;whiteSpace=wrap;html=1;fillColor=#FF00FF;" vertex="1" parent="1">
                    <mxGeometry x="100" y="290" width="120" height="60" as="geometry"/>
                </mxCell>
                <mxCell id="p9GJjc7nHzshsCbPRGxp-6" value="Gradients" style="rounded=0;whiteSpace=wrap;html=1;fillColor=#33FF33;" vertex="1" parent="1">
                    <mxGeometry x="100" y="250" width="120" height="30" as="geometry"/>
                </mxCell>
                <mxCell id="p9GJjc7nHzshsCbPRGxp-7" value="Activations" style="rounded=0;whiteSpace=wrap;html=1;fillColor=#004C99;" vertex="1" parent="1">
                    <mxGeometry x="100" y="200" width="120" height="40" as="geometry"/>
                </mxCell>
            </root>
        </mxGraphModel>
    </diagram>
    <diagram id="1aKVY8kWNlJgJYmuvmKM" name="Page-3">
        <mxGraphModel dx="694" dy="692" grid="1" gridSize="10" guides="1" tooltips="1" connect="1" arrows="1" fold="1" page="1" pageScale="1" pageWidth="850" pageHeight="1100" math="0" shadow="0">
            <root>
                <mxCell id="0"/>
                <mxCell id="1" parent="0"/>
                <mxCell id="ZuKIFXXJ1h3Z7tqzPKCu-1" value="Updated Weights" style="rounded=1;whiteSpace=wrap;html=1;fillColor=#00CC00;" vertex="1" parent="1">
                    <mxGeometry x="130" y="160" width="120" height="60" as="geometry"/>
                </mxCell>
                <mxCell id="ZuKIFXXJ1h3Z7tqzPKCu-2" value="Updated Weights" style="rounded=1;whiteSpace=wrap;html=1;fillColor=#00CC00;" vertex="1" parent="1">
                    <mxGeometry x="481" y="161" width="120" height="60" as="geometry"/>
                </mxCell>
                <mxCell id="ZuKIFXXJ1h3Z7tqzPKCu-4" style="edgeStyle=none;html=1;entryX=0.5;entryY=1;entryDx=0;entryDy=0;" edge="1" parent="1" source="ZuKIFXXJ1h3Z7tqzPKCu-3" target="ZuKIFXXJ1h3Z7tqzPKCu-1">
                    <mxGeometry relative="1" as="geometry"/>
                </mxCell>
                <mxCell id="ZuKIFXXJ1h3Z7tqzPKCu-3" value="Pretrained Weights" style="rounded=0;whiteSpace=wrap;html=1;fillColor=#666666;" vertex="1" parent="1">
                    <mxGeometry x="90" y="280" width="80" height="80" as="geometry"/>
                </mxCell>
                <mxCell id="ZuKIFXXJ1h3Z7tqzPKCu-6" style="edgeStyle=none;html=1;entryX=0.5;entryY=1;entryDx=0;entryDy=0;" edge="1" parent="1" source="ZuKIFXXJ1h3Z7tqzPKCu-5" target="ZuKIFXXJ1h3Z7tqzPKCu-2">
                    <mxGeometry relative="1" as="geometry"/>
                </mxCell>
                <mxCell id="ZuKIFXXJ1h3Z7tqzPKCu-5" value="Pretrained Weights" style="rounded=0;whiteSpace=wrap;html=1;fillColor=#666666;" vertex="1" parent="1">
                    <mxGeometry x="440" y="280" width="80" height="80" as="geometry"/>
                </mxCell>
                <mxCell id="ZuKIFXXJ1h3Z7tqzPKCu-8" style="edgeStyle=none;html=1;entryX=0.5;entryY=1;entryDx=0;entryDy=0;" edge="1" parent="1" source="ZuKIFXXJ1h3Z7tqzPKCu-7" target="ZuKIFXXJ1h3Z7tqzPKCu-1">
                    <mxGeometry relative="1" as="geometry"/>
                </mxCell>
                <mxCell id="ZuKIFXXJ1h3Z7tqzPKCu-7" value="Full Rank weight update" style="rounded=0;whiteSpace=wrap;html=1;fillColor=#0000FF;" vertex="1" parent="1">
                    <mxGeometry x="210" y="280" width="80" height="80" as="geometry"/>
                </mxCell>
                <mxCell id="ZuKIFXXJ1h3Z7tqzPKCu-11" style="edgeStyle=none;html=1;entryX=0.5;entryY=1;entryDx=0;entryDy=0;" edge="1" parent="1" source="ZuKIFXXJ1h3Z7tqzPKCu-9" target="ZuKIFXXJ1h3Z7tqzPKCu-2">
                    <mxGeometry relative="1" as="geometry"/>
                </mxCell>
                <mxCell id="ZuKIFXXJ1h3Z7tqzPKCu-9" value="B" style="triangle;whiteSpace=wrap;html=1;fillColor=#0000FF;direction=south;" vertex="1" parent="1">
                    <mxGeometry x="580" y="270" width="80" height="60" as="geometry"/>
                </mxCell>
                <mxCell id="ZuKIFXXJ1h3Z7tqzPKCu-10" value="A" style="triangle;whiteSpace=wrap;html=1;fillColor=#0000FF;direction=north;" vertex="1" parent="1">
                    <mxGeometry x="580" y="330" width="80" height="60" as="geometry"/>
                </mxCell>
                <mxCell id="ZuKIFXXJ1h3Z7tqzPKCu-12" value="" style="endArrow=classic;html=1;" edge="1" parent="1">
                    <mxGeometry width="50" height="50" relative="1" as="geometry">
                        <mxPoint x="320" y="325" as="sourcePoint"/>
                        <mxPoint x="420" y="325" as="targetPoint"/>
                    </mxGeometry>
                </mxCell>
                <mxCell id="ZuKIFXXJ1h3Z7tqzPKCu-13" value="LoRA weight update approximation" style="text;html=1;strokeColor=none;fillColor=none;align=center;verticalAlign=middle;whiteSpace=wrap;rounded=0;" vertex="1" parent="1">
                    <mxGeometry x="340" y="340" width="60" height="30" as="geometry"/>
                </mxCell>
                <mxCell id="ZuKIFXXJ1h3Z7tqzPKCu-14" value="Full Finetuning" style="text;html=1;strokeColor=none;fillColor=none;align=center;verticalAlign=middle;whiteSpace=wrap;rounded=0;" vertex="1" parent="1">
                    <mxGeometry x="160" y="380" width="60" height="30" as="geometry"/>
                </mxCell>
                <mxCell id="ZuKIFXXJ1h3Z7tqzPKCu-15" value="LoRA Finetuning" style="text;html=1;strokeColor=none;fillColor=none;align=center;verticalAlign=middle;whiteSpace=wrap;rounded=0;" vertex="1" parent="1">
                    <mxGeometry x="520" y="400" width="60" height="30" as="geometry"/>
                </mxCell>
            </root>
        </mxGraphModel>
    </diagram>
    <diagram id="kVEIs9mHJicPIUWHt5bK" name="Page-2">
        <mxGraphModel dx="694" dy="692" grid="1" gridSize="10" guides="1" tooltips="1" connect="1" arrows="1" fold="1" page="1" pageScale="1" pageWidth="850" pageHeight="1100" math="0" shadow="0">
            <root>
                <mxCell id="0"/>
                <mxCell id="1" parent="0"/>
                <mxCell id="WF3uviR4MTL5pgWsYfdr-2" value="40 GB" style="rounded=0;whiteSpace=wrap;html=1;verticalAlign=top;" parent="1" vertex="1">
                    <mxGeometry x="80" y="120" width="160" height="360" as="geometry"/>
                </mxCell>
                <mxCell id="WF3uviR4MTL5pgWsYfdr-3" value="2B * 2 Bytes per parameters" style="rounded=0;whiteSpace=wrap;html=1;fillColor=#0000FF;" parent="1" vertex="1">
                    <mxGeometry x="100" y="400" width="120" height="60" as="geometry"/>
                </mxCell>
                <mxCell id="WF3uviR4MTL5pgWsYfdr-4" value="2B * 4 Bytes per param for Adam Optimizer = 8GB" style="rounded=0;whiteSpace=wrap;html=1;fillColor=#CC00CC;" parent="1" vertex="1">
                    <mxGeometry x="100" y="290" width="120" height="100" as="geometry"/>
                </mxCell>
            </root>
        </mxGraphModel>
    </diagram>
    <diagram id="pca6Zg5H9z33NP59ngoo" name="Page-1">
        <mxGraphModel dx="694" dy="692" grid="1" gridSize="10" guides="1" tooltips="1" connect="1" arrows="1" fold="1" page="1" pageScale="1" pageWidth="850" pageHeight="1100" math="0" shadow="0">
            <root>
                <mxCell id="0"/>
                <mxCell id="1" parent="0"/>
                <mxCell id="9" style="edgeStyle=none;html=1;entryX=0;entryY=0.5;entryDx=0;entryDy=0;" parent="1" source="2" target="4" edge="1">
                    <mxGeometry relative="1" as="geometry"/>
                </mxCell>
                <mxCell id="2" value="Raw Text data" style="html=1;dashed=0;whitespace=wrap;shape=mxgraph.dfd.externalEntity" parent="1" vertex="1">
                    <mxGeometry x="70" y="190" width="100" height="100" as="geometry"/>
                </mxCell>
                <mxCell id="3" value="Id" style="autosize=1;part=1;resizable=0;strokeColor=inherit;fillColor=inherit;gradientColor=inherit;" parent="2" vertex="1">
                    <mxGeometry width="20" height="20" relative="1" as="geometry">
                        <mxPoint x="15" y="15" as="offset"/>
                    </mxGeometry>
                </mxCell>
                <mxCell id="6" value="" style="edgeStyle=none;html=1;" parent="1" source="4" target="5" edge="1">
                    <mxGeometry relative="1" as="geometry"/>
                </mxCell>
                <mxCell id="4" value="Pretrained LLM" style="whiteSpace=wrap;html=1;dashed=0;" parent="1" vertex="1">
                    <mxGeometry x="240" y="210" width="120" height="60" as="geometry"/>
                </mxCell>
                <mxCell id="5" value="FinetunedLLM" style="whiteSpace=wrap;html=1;dashed=0;" parent="1" vertex="1">
                    <mxGeometry x="440" y="210" width="120" height="60" as="geometry"/>
                </mxCell>
                <mxCell id="8" style="edgeStyle=none;html=1;" parent="1" source="7" edge="1">
                    <mxGeometry relative="1" as="geometry">
                        <mxPoint x="405" y="240" as="targetPoint"/>
                    </mxGeometry>
                </mxCell>
                <mxCell id="7" value="Custom Knowledgebase" style="shape=datastore;whiteSpace=wrap;html=1;" parent="1" vertex="1">
                    <mxGeometry x="350" y="60" width="110" height="100" as="geometry"/>
                </mxCell>
            </root>
        </mxGraphModel>
    </diagram>
</mxfile>